<svg xmlns="http://www.w3.org/2000/svg"><defs><symbol id="camera" viewBox="0 0 24 24"><path d="M6.811,8.438H4.8a2.387,2.387,0,0,0-2.4,2.374V16.75a2.388,2.388,0,0,0,2.4,2.375H19.2a2.388,2.388,0,0,0,2.4-2.375V10.812a2.387,2.387,0,0,0-2.4-2.374H17.189l-.465-1.783A2.4,2.4,0,0,0,14.4,4.875H9.6a2.4,2.4,0,0,0-2.324,1.78ZM4.951,6.062A4.794,4.794,0,0,1,9.6,2.5h4.8a4.793,4.793,0,0,1,4.649,3.562H19.2a4.775,4.775,0,0,1,4.8,4.75V16.75a4.775,4.775,0,0,1-4.8,4.75H4.8A4.775,4.775,0,0,1,0,16.75V10.812a4.775,4.775,0,0,1,4.8-4.75ZM12,17.938a4.75,4.75,0,1,1,4.8-4.751A4.776,4.776,0,0,1,12,17.938Zm0-2.376a2.375,2.375,0,1,0-2.4-2.375A2.388,2.388,0,0,0,12,15.562ZM19.2,12A1.188,1.188,0,1,0,18,10.812,1.194,1.194,0,0,0,19.2,12Z"/></symbol><symbol id="eyedropper" viewBox="-2 -2 24 24"><path d='M6.502 12.348h2.829l2.707-2.578-1.414-1.347-4.122 3.925zm-1.987 1.905a4.713 4.713 0 0 0-1.002 1.653l-.334.954 1.002-.318a5.046 5.046 0 0 0 1.954-1.15l1.196-1.14H4.515zM14.866 9.77a.92.92 0 0 1 0 1.347 1.036 1.036 0 0 1-1.414 0L7.55 16.738a7.064 7.064 0 0 1-2.737 1.61l-2.899.921c-.523.166-1.09-.103-1.264-.602a.91.91 0 0 1 0-.603l.966-2.76a6.625 6.625 0 0 1 1.69-2.606L9.21 7.076a.92.92 0 0 1 0-1.347 1.036 1.036 0 0 1 1.414 0l4.242-4.04c1.172-1.116 3.071-1.116 4.243 0a2.762 2.762 0 0 1 0 4.04l-4.243 4.04zm-2.828-2.694l1.414 1.347 4.243-4.04a.92.92 0 0 0 0-1.347 1.036 1.036 0 0 0-1.414 0l-4.243 4.04z'/></symbol><symbol id="align-justify" viewBox="-5 -7 24 24"><path d='M1 0h12a1 1 0 0 1 0 2H1a1 1 0 1 1 0-2zm0 8h12a1 1 0 0 1 0 2H1a1 1 0 1 1 0-2zm0-4h12a1 1 0 0 1 0 2H1a1 1 0 1 1 0-2z' /></symbol><symbol id="align-left" viewBox="-5 -7 24 24"><path d='M1 0h6a1 1 0 1 1 0 2H1a1 1 0 1 1 0-2zm0 8h8a1 1 0 1 1 0 2H1a1 1 0 1 1 0-2zm0-4h12a1 1 0 0 1 0 2H1a1 1 0 1 1 0-2z' /></symbol><symbol id="brush" viewBox="-2 -3 24 24"><path d='M6.816 11.556c-1.008.464-1.69 1.003-2.084 1.598a51.574 51.574 0 0 0-1.115 1.756c1.124.244 1.969.127 2.578-.281.852-.57 1.408-1.221 1.717-1.977l-1.096-1.096zm1.395-1.433l1.02 1.02c.742-.382 1.489-.987 2.234-1.832 1.139-1.29 3.061-3.588 5.757-6.88a.211.211 0 0 0-.297-.296c-3.286 2.693-5.583 4.615-6.881 5.758-.849.746-1.454 1.491-1.833 2.23zm-.903 6.168c-1.615 1.081-3.826.982-6.63-.298a58.148 58.148 0 0 1 2.387-3.945c.655-.987 1.712-1.794 3.17-2.422C6.72 8.5 7.55 7.423 8.722 6.39c1.32-1.162 3.632-3.096 6.936-5.803a2.21 2.21 0 0 1 3.111 3.111c-2.71 3.31-4.645 5.621-5.804 6.935-.978 1.108-2 1.911-3.067 2.408-.43 1.298-1.293 2.38-2.59 3.249z'/></symbol><symbol id="bold" viewBox="-8.5 -7 24 24"><path d='M2 5.455v2.727h1.5c.828 0 1.5-.61 1.5-1.364 0-.753-.672-1.363-1.5-1.363H2zm3.514-1.24C6.413 4.793 7 5.744 7 6.819 7 8.575 5.433 10 3.5 10H0V.91C0 .406.448 0 1 0h2c1.657 0 3 1.221 3 2.727 0 .55-.179 1.06-.486 1.489zM2 1.819v1.818h1c.552 0 1-.407 1-.909s-.448-.909-1-.909H2z' /></symbol><symbol id="layout" viewBox="-3 -2 24 24"><path d='M9 18h6a1 1 0 0 0 1-1V3a1 1 0 0 0-1-1H3a1 1 0 0 0-1 1v14a1 1 0 0 0 1 1h4V8H2V6h14v2H9v10zM3 0h12a3 3 0 0 1 3 3v14a3 3 0 0 1-3 3H3a3 3 0 0 1-3-3V3a3 3 0 0 1 3-3z'/></symbol><symbol id="italic" viewBox="-7.5 -7 24 24"><path d='M2.273 8l1.95-6H3a1 1 0 1 1 0-2h5a1 1 0 1 1 0 2H6.326l-1.95 6H6a1 1 0 1 1 0 2H1a1 1 0 1 1 0-2h1.273z' /></symbol><symbol id="tools" viewBox="0 -1 24 24"><path d='M2 8.654l2.813 2.822 6.332-6.35-2.814-2.823-6.332 6.35zm4.441 8.128l2.11-2.117a.993.993 0 0 1 1.408 0 1 1 0 0 1 0 1.411l-2.11 2.117a1 1 0 0 1 0 1.411L6.44 21.015a.993.993 0 0 1-1.407 0l-1.407-1.41a1 1 0 0 1 0-1.412l1.407-1.411a.993.993 0 0 1 1.407 0zm9.146-6.35l6.331-6.35-1.407-1.412-6.331 6.35c-.777-.78-.912-1.907-.302-2.52L19.406.956c.61-.612 1.735-.477 2.512.303l1.407 1.41c.778.78.913 1.909.302 2.52l-5.528 5.545c-.61.612-1.735.477-2.512-.303zm-.924 3.866L9.738 9.36l-.704.706 4.925 4.939.704-.706zm1.407 1.412l-.704.705 1.759 1.764c.194.195.51.195.703 0a.5.5 0 0 0 0-.705L16.07 15.71zM2.06 5.77a1.5 1.5 0 0 1 .291-1.704l1.407-1.41a1.49 1.49 0 0 1 1.699-.293L6.924.892a1.986 1.986 0 0 1 2.814 0l2.814 2.823a2 2 0 0 1 0 2.822l-1.407 1.411 8.09 8.114a2.5 2.5 0 0 1 0 3.528 2.482 2.482 0 0 1-3.517 0l-8.09-8.114-1.408 1.411c-.777.78-2.037.78-2.814 0L.592 10.065a2 2 0 0 1 0-2.823l1.467-1.47z'/></symbol><symbol id="wrench" viewBox="-1 -1 24 24"><path d='M2.464 6.748c.06.942.45 1.865 1.164 2.578a3.997 3.997 0 0 0 3.866 1.036l1.114-.298 9.162 9.161a1 1 0 0 0 1.414-1.414L10.022 8.65l.298-1.115A3.997 3.997 0 0 0 9.284 3.67a3.995 3.995 0 0 0-2.578-1.164L7.93 3.728A3 3 0 1 1 3.686 7.97L2.464 6.748zm-.9-3.727L5.1 6.556a1 1 0 0 0 1.415-1.414L2.979 1.606a6.002 6.002 0 0 1 9.273 6.445l8.346 8.346a3 3 0 0 1-4.243 4.243L8.01 12.294A6.002 6.002 0 0 1 1.565 3.02zm15.5 15.496l1.42-1.41-1.42-1.414-1.419 1.414 1.418 1.41z'/></symbol><symbol id="search" viewBox="-2.5 -2.5 24 24"><path d='M8 14A6 6 0 1 0 8 2a6 6 0 0 0 0 12zm6.32-1.094l3.58 3.58a1 1 0 1 1-1.415 1.413l-3.58-3.58a8 8 0 1 1 1.414-1.414z'/></symbol><symbol id="tag" viewBox="-1.5 -1.5 24 24"><path d='M17.014.872l3.448 3.447a2 2 0 0 1 .463 2.103l-1.763 4.812a1 1 0 0 1-.232.363l-8.323 8.323a2 2 0 0 1-2.829 0l-6.364-6.364a2 2 0 0 1 0-2.828l8.333-8.333a1 1 0 0 1 .364-.232L14.913.408a2 2 0 0 1 2.101.464zm-6.009 3.094l-8.177 8.176 6.364 6.364 8.168-8.167 1.687-4.605L15.6 2.286l-4.595 1.68zm2.784 3.58a1.5 1.5 0 1 1 2.12-2.121 1.5 1.5 0 0 1-2.12 2.12z'/></symbol><symbol id="tags" viewBox="0 -3 24 24"><path d='M11.586 15.071L13 13.657l1.414 1.414 6.165-6.165 1.09-3.552-2.484-2.483-1.079.336-1.598-1.598L18.591.96a2 2 0 0 1 2.008.496l2.483 2.483a2 2 0 0 1 .498 2L22.345 9.97l-7.93 7.93-2.83-2.828zM14.236.75l2.482 2.483a2 2 0 0 1 .498 2l-1.235 4.028-7.93 7.931-7.78-7.778L8.17 1.516 12.227.254a2 2 0 0 1 2.008.496zM3.1 9.414l4.95 4.95 6.164-6.165 1.09-3.552-2.484-2.483-3.585 1.115L3.1 9.414zm7.424-2.475a1.5 1.5 0 1 1 2.121-2.121 1.5 1.5 0 0 1-2.12 2.121zm6.886 1.022l.782-2.878c.45.152.755.325.917.518a1.5 1.5 0 0 1-.185 2.113c-.29.244-.795.326-1.514.247z'/></symbol><symbol id="close" viewBox="-6 -6 24 24"><path d='M7.314 5.9l3.535-3.536A1 1 0 1 0 9.435.95L5.899 4.485 2.364.95A1 1 0 1 0 .95 2.364l3.535 3.535L.95 9.435a1 1 0 1 0 1.414 1.414l3.535-3.535 3.536 3.535a1 1 0 1 0 1.414-1.414L7.314 5.899z' /></symbol><symbol id="arrow-right" viewBox="-5 -5 24 24"> <path d='M10.586 5.657l-3.95-3.95A1 1 0 0 1 8.05.293l5.657 5.657a.997.997 0 0 1 0 1.414L8.05 13.021a1 1 0 1 1-1.414-1.414l3.95-3.95H1a1 1 0 1 1 0-2h9.586z' /></symbol><symbol id="ghost-org" viewBox="-2 -2 24 24"><path d='M.049 15.31H7.89v3.774H.049zM11.809 15.31h7.836v3.774h-7.836zM.043 7.762h19.604v3.774H.043zM.049.214h11.762v3.774H.049zM15.73.214h3.92v3.774h-3.92z'/></symbol><symbol id="ghost-org-square" viewBox="-2 -2 24 24"><path d='M5.024 12.655h3.92v1.887h-3.92zM10.905 12.655h3.918v1.887h-3.918zM5.021 8.881h9.802v1.887H5.021zM5.024 5.107h5.881v1.887H5.024zM12.865 5.107h1.96v1.887h-1.96z'/><path d='M4 2a2 2 0 0 0-2 2v12a2 2 0 0 0 2 2h12a2 2 0 0 0 2-2V4a2 2 0 0 0-2-2H4zm0-2h12a4 4 0 0 1 4 4v12a4 4 0 0 1-4 4H4a4 4 0 0 1-4-4V4a4 4 0 0 1 4-4z'/></symbol><symbol id="background-color" viewBox="0 0 24 24"><path d="M14.572,15.333l.843,2.31a1.716,1.716,0,0,0,2.1.95,1.45,1.45,0,0,0,1.072-1.861L15.17,7.382a3.161,3.161,0,0,0-2.142-1.9,3.442,3.442,0,0,0-4.2,1.9L5.417,16.73A1.453,1.453,0,0,0,6.488,18.6a1.722,1.722,0,0,0,2.1-.952l.842-2.31ZM13.355,12H10.647L12,8.293ZM5.333,2H18.667A3.333,3.333,0,0,1,22,5.333V18.667A3.333,3.333,0,0,1,18.667,22H5.333A3.333,3.333,0,0,1,2,18.667V5.333A3.333,3.333,0,0,1,5.333,2Z"/></symbol></defs></svg>